# AST/ASF file generated using VICON BodyLanguage
# -----------------------------------------------
:version 1.10
:name VICON
:units
  mass 1.0
  length 0.45
  angle deg
:documentation
   .ast/.asf automatically generated from VICON data using
   VICON BodyBuilder and BodyLanguage model FoxedUp or BRILLIANT.MOD
:root
   order TX TY TZ RX RY RZ
   axis XYZ
   position 0 0 0  
   orientation 0 0 0 
:bonedata
  begin
     id 1 
     name lhipjoint
     direction 0.645897 -0.709066 0.282916 
     length 2.50918 
     axis 0 0 0  XYZ
  end
  begin
     id 2 
     name lfemur
     direction 0.34202 -0.939693 0  
     length 6.85725  
     axis 0 0 20  XYZ
    dof rx ry rz
    limits (-160.0 20.0)
           (-70.0 70.0)
           (-60.0 70.0)
  end
  begin
     id 3 
     name ltibia
     direction 0.34202 -0.939693 0   
     length 8.01778   
     axis 0 0 20   XYZ
    dof rx
    limits (-10.0 170.0)
  end
  begin
     id 4 
     name lfoot
     direction 0.0796011 -0.218702 0.972539   
     length 2.13962   
     axis -90 7.62852e-016 20   XYZ
    dof rx rz
    limits (-45.0 90.0)
           (-70.0 20.0)
  end
  begin
     id 5 
     name ltoes
     direction 1.53548e-011 -4.21881e-011 1   
     length 1.07476   
     axis -90 7.62852e-016 20   XYZ
    dof rx
    limits (-90.0 20.0)
  end
  begin
     id 6 
     name rhipjoint
     direction -0.63101 -0.720537 0.287493   
     length 2.46923  
     axis 0 0 0  XYZ 
  end
  begin
     id 7 
     name rfemur
     direction -0.34202 -0.939693 0   
     length 6.81957   
     axis 0 0 -20   XYZ
    dof rx ry rz
    limits (-160.0 20.0)
           (-70.0 70.0)
           (-70.0 60.0)
  end
  begin
     id 8 
     name rtibia
     direction -0.34202 -0.939693 0   
     length 8.15152   
     axis 0 0 -20   XYZ
    dof rx
    limits (-10.0 170.0)
 end
 begin
     id 9 
     name rfoot
     direction -0.105819 -0.290734 0.950934   
     length 2.14588  
     axis -90 -7.62852e-016 -20   XYZ
    dof rx rz
    limits (-45.0 90.0)
           (-20.0 70.0)
  end
  begin
     id 10 
     name rtoes
     direction -1.53512e-011 -4.22005e-011 1   
     length 1.0703   
     axis -90 -7.62852e-016 -20   XYZ
    dof rx
    limits (-90.0 20.0)
  end
  begin
     id 11 
     name lowerback
     direction 0.0114933 0.999236 0.0373542   
     length 1.91711   
     axis 0 0 0   XYZ
    dof rx ry rz
    limits (-20.0 45.0)
           (-30.0 30.0)
           (-30.0 30.0)
  end
  begin
     id 12 
     name upperback
     direction 0.00911529 0.998099 0.0609554   
     length 1.90888   
     axis 0 0 0   XYZ
    dof rx ry rz
    limits (-20.0 45.0)
           (-30.0 30.0)
           (-30.0 30.0)
  end
  begin
     id 13 
     name thorax
     direction 0.00357322 0.99911 0.0420379   
     length 1.90942   
     axis 0 0 0   XYZ
    dof rx ry rz
    limits (-20.0 45.0)
           (-30.0 30.0)
           (-30.0 30.0)
  end
  begin
     id 14 
     name lowerneck
     direction -0.0589311 0.997882 0.0275448   
     length 1.83956   
     axis 0 0 0   XYZ
    dof rx ry rz
    limits (-20.0 45.0)
           (-30.0 30.0)
           (-30.0 30.0)
  end
  begin
     id 15 
     name upperneck
     direction 0.0362633 0.960055 -0.277453   
     length 1.82031   
     axis 0 0 0   XYZ
    dof rx ry rz
    limits (-20.0 45.0)
           (-30.0 30.0)
           (-30.0 30.0)
  end
  begin
     id 16
     name head
     direction 0.0166719 0.995328 -0.0951042  
     length 1.86084  
     axis 0 0 0   XYZ
    dof rx ry rz
    limits (-20.0 45.0)
           (-30.0 30.0)
           (-30.0 30.0)
  end
  begin
     id 17 
     name lclavicle
     direction 0.90319 0.426238 0.0506919  
     length 3.17828  
     axis 0 0 0   XYZ
    dof ry rz
    limits (-20.0 10.0)
           (0.0 20.0)
  end
  begin
     id 18 
     name lhumerus
     direction 1 -4.48953e-011 6.78797e-028   
     length 5.43592   
     axis 180 -30 -90   XYZ
    dof rx ry rz
    limits (-60.0 90.0)
           (-90.0 90.0)
           (-90.0 90.0)
  end
  begin
     id 19
     name lradius
     direction 1 -4.48969e-011 7.02702e-027   
     length 3.2546   
     axis 180 -30 -90   XYZ
    dof rx
    limits (-10.0 170.0)
  end
  begin
     id 20
     name lwrist
     direction 1 -4.48975e-011 1.29807e-026   
     length 1.6273   
     axis -8.50346e-015 90 90   XYZ
    dof ry
    limits (-180.0 0.0)
 end
  begin
     id 21 
     name lhand
     direction 1 -4.48917e-011 2.59615e-026   
     length 0.498244   
     axis -1.65656e-014 90 90   XYZ
    dof rx rz
    limits (-90.0 90.0)
           (-45.0 45.0)
  end
  begin
     id 22 
     name lfingers
     direction 1 -4.48885e-011 5.1923e-026   
     length 0.401697   
     axis -3.31313e-014 90 90   XYZ
    dof rx
    limits (0.0 90.0)
  end
  begin
     id 23
     name lthumb
     direction 0.707107 -6.34946e-011 0.707107   
     length 0.576759   
     axis -90 45 2.85299e-015   XYZ
    dof rx rz
    limits (-45.0 45.0)
           (-45.0 45.0)
  end
  begin
     id 24 
     name rclavicle
     direction -0.908603 0.391432 0.145676   
     length 3.15477  
     axis 0 0 0   XYZ 
    dof ry rz
    limits (-10.0 20.0)
           (-20.0 0.0)
  end
  begin
     id 25 
     name rhumerus
     direction -1 -4.4898e-011 1.02852e-027  
     length 5.3383   
     axis 180 30 90   XYZ
    dof rx ry rz
    limits (-90.0 60.0)
           (-90.0 90.0)
           (-90.0 90.0)
  end
  begin
     id 26 
     name rradius
     direction -1 -4.48968e-011 7.05567e-027   
     length 3.23148   
     axis 180 30 90   XYZ
    dof rx
    limits (-10.0 170.0)
  end
  begin
     id 27 
     name rwrist
     direction -1 -4.48927e-011 1.29807e-026   
     length 1.61574   
     axis -8.50346e-015 -90 -90   XYZ
    dof ry
    limits (-180.0 0.0)
  end
  begin
     id 28
     name rhand
     direction -1 -4.48905e-011 2.59615e-026   
     length 0.463641   
     axis -1.65656e-014 -90 -90   XYZ
    dof rx rz
    limits (-90.0 90.0)
           (-45.0 45.0)
  end
  begin
     id 29
     name rfingers
     direction -1 -4.49167e-011 5.1923e-026   
     length 0.373799   
     axis -3.31313e-014 -90 -90   XYZ
    dof rx
    limits (0.0 90.0)
  end
  begin
     id 30
     name rthumb
     direction -0.707107 -6.34954e-011 0.707107   
     length 0.536703   
     axis -90 -45 -2.85299e-015   XYZ
    dof rx rz
    limits (-45.0 45.0)
           (-45.0 45.0)
  end
:hierarchy
  begin
    root lhipjoint rhipjoint lowerback
    lhipjoint lfemur
    lfemur ltibia
    ltibia lfoot
    lfoot ltoes
    rhipjoint rfemur
    rfemur rtibia
    rtibia rfoot
    rfoot rtoes
    lowerback upperback
    upperback thorax
    thorax lowerneck lclavicle rclavicle
    lowerneck upperneck
    upperneck head
    lclavicle lhumerus
    lhumerus lradius
    lradius lwrist
    lwrist lhand lthumb
    lhand lfingers
    rclavicle rhumerus
    rhumerus rradius
    rradius rwrist
    rwrist rhand rthumb
    rhand rfingers
  end

#!OML:ASF F:\VICON\USERDATA\INSTALL\rory3\rory3.ASF
:FULLY-SPECIFIED
:DEGREES
35
root 3.77404 17.4368 3.69537 21.3761 -8.25185 -1.0948
lowerback -11.4501 1.37825 6.99496
upperback -13.4101 1.39219 0.598035
thorax -7.81539 0.0796511 -3.19247
lowerneck -3.26362 18.191 12.4904
upperneck 11.5815 22.7333 7.31932
head 4.57156 12.0462 1.68562
rclavicle -4.07509e-015 -1.35174e-014
rhumerus -9.07655 -24.8107 27.1022
rradius 121.085
rwrist -58.9324
rhand -4.70728 -45.8644
rfingers 7.12502
rthumb 21.0746 -74.7392
lclavicle -4.07509e-015 -1.35174e-014
lhumerus 33.2662 27.3965 -17.1476
lradius 28.762
lwrist 25.3191
lhand -25.4412 -23.2263
lfingers 7.12502
lthumb 1.08542 6.75069
rfemur 4.58792 4.4977 0.184415
rtibia 1.59028e-014
rfoot -22.0213 -20.9909
rtoes 47.1247
lfemur -28.5801 -1.62207 -25.2692
ltibia 25.252
lfoot -16.0111 5.68306
ltoes 9.82556
36
root 3.77297 17.4357 3.6976 21.3402 -8.24284 -0.977742
lowerback -11.4566 1.35971 6.86019
upperback -13.4294 1.37324 0.547512
thorax -7.8337 0.0781756 -3.17249
lowerneck -2.87809 18.1116 12.6636
upperneck 11.3197 22.7139 7.0758
head 4.47544 12.0159 1.54716
rclavicle -2.79292e-014 3.97569e-015
rhumerus -9.03593 -24.7385 27.1236
rradius 121.057
rwrist -58.7665
rhand -5.14148 -46.1556
rfingers 7.12502
rthumb 20.6575 -75.0763
lclavicle -2.79292e-014 3.97569e-015
lhumerus 33.5256 27.5555 -16.8563
lradius 28.7197
lwrist 25.047
lhand -25.4327 -23.4234
lfingers 7.12502
lthumb 1.09362 6.55352
rfemur 4.65522 4.45698 0.0678654
rtibia -1.27222e-014
rfoot -22.2308 -20.7723
rtoes 47.2682
lfemur -28.5485 -1.59733 -25.4012
ltibia 25.2116
lfoot -16.1038 5.62153
ltoes 9.74444
37
root 3.76937 17.4343 3.6991 21.2991 -8.26342 -0.92812
lowerback -11.4512 1.34243 6.73028
upperback -13.4041 1.35698 0.542361
thorax -7.8077 0.0827795 -3.10657
lowerneck -2.90016 18.1114 12.7274
upperneck 11.3965 22.7071 7.01879
head 4.51718 12.0157 1.53357
rclavicle -2.68359e-015 -1.39149e-014
rhumerus -9.03348 -24.6489 27.0916
rradius 121.073
rwrist -58.5228
rhand -5.44746 -46.4447
rfingers 7.12502
rthumb 20.3634 -75.3971
lclavicle -2.68359e-015 -1.39149e-014
lhumerus 33.8881 28.0496 -16.3092
lradius 28.57
lwrist 24.4165
lhand -25.1389 -23.6296
lfingers 7.12502
lthumb 1.37743 6.34565
rfemur 4.69612 4.46968 0.025157
rtibia 9.54166e-015
rfoot -22.6267 -20.3286
rtoes 47.7234
lfemur -28.4959 -1.53451 -25.4613
ltibia 25.1883
lfoot -16.0823 5.56257
ltoes 9.64052
38
root 3.76847 17.4352 3.69866 21.3086 -8.23941 -0.95274
lowerback -11.4299 1.32823 6.71198
upperback -13.4474 1.34333 0.557474
thorax -7.87096 0.0752271 -3.08131
lowerneck -2.82548 18.1309 12.7993
upperneck 11.4656 22.7404 6.98636
head 4.54015 12.0359 1.5185
rclavicle 9.93923e-017 -9.14409e-015
rhumerus -8.90325 -24.5019 26.9501
rradius 121.054
rwrist -58.4316
rhand -5.40151 -46.4768
rfingers 7.12502
rthumb 20.4076 -75.4244
lclavicle 9.93923e-017 -9.14409e-015
lhumerus 33.8891 27.9748 -16.3469
lradius 28.6109
lwrist 24.4309
lhand -25.0125 -23.6612
lfingers 7.12502
lthumb 1.49952 6.31327
rfemur 4.67805 4.45474 0.0648139
rtibia -9.54166e-015
rfoot -22.8965 -20.1064
rtoes 48.0687
lfemur -28.4867 -1.44883 -25.4574
ltibia 25.1947
lfoot -16.0678 5.52768
ltoes 9.35513
39
root 3.77093 17.4371 3.69526 21.3175 -8.19619 -1.06401
lowerback -11.353 1.33615 6.85453
upperback -13.5153 1.35565 0.567446
thorax -7.99248 0.0635442 -3.15066
lowerneck -2.72563 18.1203 12.8281
upperneck 11.5634 22.7306 7.04086
head 4.55267 12.0392 1.52638
rclavicle -1.47101e-014 -1.27222e-014
rhumerus -8.67335 -24.3795 26.6695
rradius 120.934
rwrist -58.256
rhand -5.33739 -46.2764
rfingers 7.12502
rthumb 20.4692 -75.2174
lclavicle -1.47101e-014 -1.27222e-014
lhumerus 33.9438 27.8602 -16.3913
lradius 28.6302
lwrist 24.4345
lhand -25.0253 -23.6123
lfingers 7.12502
lthumb 1.48715 6.36228
rfemur 4.66559 4.45671 0.190388
rtibia -9.54166e-015
rfoot -23.01 -20.0789
rtoes 48.1876
lfemur -28.489 -1.49059 -25.3294
ltibia 25.2126
lfoot -16.041 5.60247
ltoes 9.21767
40
root 3.77092 17.4371 3.695 21.3034 -8.19307 -1.14913
lowerback -11.2589 1.34458 6.92218
upperback -13.5472 1.3738 0.588771
thorax -8.0809 0.0640766 -3.16612
lowerneck -3.02768 18.1438 12.6592
upperneck 11.9557 22.6753 7.34474
head 4.66998 12.0423 1.67555
rclavicle 1.60022e-014 -3.57812e-015
rhumerus -8.57995 -24.303 26.5554
rradius 120.874
rwrist -58.1676
rhand -5.11086 -46.023
rfingers 7.12502
rthumb 20.6869 -74.9405
lclavicle 1.60022e-014 -3.57812e-015
lhumerus 34.0153 27.8214 -16.375
lradius 28.5832
lwrist 24.2374
lhand -25.2311 -23.4752
lfingers 7.12502
lthumb 1.28839 6.50066
rfemur 4.67819 4.49145 0.283525
rtibia 5.40694e-014
rfoot -23.1749 -19.9157
rtoes 48.4456
lfemur -28.4817 -1.55483 -25.2154
ltibia 25.2373
lfoot -15.9735 5.68544
ltoes 9.04514
41
root 3.76794 17.436 3.69959 21.2828 -8.17402 -1.08525
lowerback -11.2643 1.33605 6.79159
upperback -13.5065 1.36798 0.586709
thorax -8.02994 0.0758174 -3.09586
lowerneck -3.64925 18.2226 12.3335
upperneck 12.4328 22.639 7.76435
head 4.83384 12.0614 1.90989
rclavicle -1.03368e-014 -4.37326e-015
rhumerus -8.60353 -24.2351 26.4746
rradius 120.867
rwrist -58.0692
rhand -5.18102 -45.9334
rfingers 7.12502
rthumb 20.6195 -74.8582
lclavicle -1.03368e-014 -4.37326e-015
lhumerus 33.9293 27.7368 -16.5243
lradius 28.6265
lwrist 24.3768
lhand -25.339 -23.2941
lfingers 7.12502
lthumb 1.18419 6.68231
rfemur 4.73703 4.45707 0.233282
rtibia -1.27222e-014
rfoot -23.6952 -19.2774
rtoes 49.2041
lfemur -28.4683 -1.56344 -25.268
ltibia 25.2537
lfoot -15.92 5.59577
ltoes 9.1355
42
root 3.76641 17.4363 3.70132 21.2869 -8.14937 -1.04137
lowerback -11.3703 1.32208 6.72118
upperback -13.6725 1.35029 0.590005
thorax -8.16421 0.0646262 -3.05263
lowerneck -2.78227 18.1656 12.5395
upperneck 12.2166 22.707 7.6797
head 4.66311 12.0825 1.77059
rclavicle -1.3418e-014 -2.26615e-014
rhumerus -8.37464 -23.8054 26.2867
rradius 120.893
rwrist -58.0474
rhand -5.66774 -45.9994
rfingers 7.12502
rthumb 20.1517 -74.9742
lclavicle -1.3418e-014 -2.26615e-014
lhumerus 33.7248 27.0098 -16.9535
lradius 28.8019
lwrist 24.946
lhand -25.5402 -23.1364
lfingers 7.12502
lthumb 0.989867 6.84105
rfemur 4.75608 4.4172 0.20099
rtibia 2.8625e-014
rfoot -23.9307 -18.9847
rtoes 49.5362
lfemur -28.4632 -1.64973 -25.2805
ltibia 25.2354
lfoot -16.065 5.64483
ltoes 9.34707
